# xmcd
#
# Track frame offsets:
#	150
#	17938
#	29850
#	42942
#	58089
#	75074
#	90307
#	106935
#	123624
#	139784
#
# Disc length: 2003 seconds
# Revision: 1
# Processed by: cddbd v1.5.2PL0 Copyright (c) Steve Scherf et al.
# Submitted via: dBpowerAMP V12.0
#
DISCID=7d07d10a
DTITLE=Marie Osmond - Dancing With The Best Of Marie Osmond
DYEAR=2008
DGENRE=Country
TTITLE0=Meet Me In Montana
TTITLE1=Paper Roses
TTITLE2=There's No Stopping Your Heart
TTITLE3=You're Still New To Me
TTITLE4=Read My Lips
TTITLE5=I Only Wanted You
TTITLE6=Everybody's Crazy 'Bout My Baby
TTITLE7=Sweet Life
TTITLE8=Like A Hurricane
TTITLE9=Boogie Woogie Bugle Boy
EXTD=
EXTT0=
EXTT1=
EXTT2=
EXTT3=
EXTT4=
EXTT5=
EXTT6=
EXTT7=
EXTT8=
EXTT9=
PLAYORDER=
